<svg version="1.1" id="Layer_1" xmlns="http://www.w3.org/2000/svg" xmlns:xlink="http://www.w3.org/1999/xlink" x="0px" y="0px"
	 height="40" width="40" viewBox="0 0 198 232" enable-background="new 0 0 198 232" xml:space="preserve">
<path fill="#1947A0" opacity="1.000000" stroke="none" 
	d="
M0.999998,179.000000
	C1.000000,138.645767 1.000000,98.291542 1.352265,57.434685 
	C32.405106,39.301674 63.112881,21.683775 93.773788,3.984688 
	C94.761154,3.414726 95.268753,2.013643 96.000000,1.000001 
	C98.370560,1.000000 100.741112,1.000000 103.337471,1.322024 
	C104.825829,2.654630 105.983253,3.846776 107.367027,4.648024 
	C123.171089,13.799110 138.987000,22.930292 154.845612,31.986458 
	C169.534882,40.374855 184.279663,48.666019 199.000000,57.000000 
	C199.000000,97.020897 199.000000,137.041794 198.645554,177.396729 
	C197.671616,177.959351 197.003922,178.104111 196.439529,178.428574 
	C166.373871,195.712723 136.311386,213.002396 106.284409,230.353546 
	C105.331406,230.904236 104.753021,232.103241 104.000000,233.000000 
	C100.638710,233.000000 97.277428,233.000000 93.684219,232.679657 
	C92.485909,231.512970 91.628441,230.478012 90.537216,229.847824 
	C61.923065,213.322754 33.288349,196.833282 4.636785,180.373169 
	C3.527630,179.735977 2.216835,179.449768 0.999998,179.000000 
M188.973633,73.801620 
	C188.909500,71.403687 189.417679,69.206314 186.426849,67.527977 
	C158.718521,51.979027 131.148834,36.183060 103.452721,20.612061 
	C102.086601,19.844011 99.565727,19.835104 98.182838,20.582863 
	C70.383492,35.614639 42.651142,50.771240 15.002258,66.077835 
	C13.527246,66.894417 12.039627,69.239166 12.014747,70.894417 
	C11.551496,101.712181 11.265427,132.533096 11.139878,163.354172 
	C11.132960,165.052383 12.402834,167.525452 13.824193,168.346024 
	C41.336826,184.229507 68.942688,199.952240 96.615906,215.554565 
	C97.989540,216.328995 100.516190,216.386765 101.887436,215.640991 
	C129.636322,200.548676 157.319809,185.334961 184.904800,169.945557 
	C186.464523,169.075394 187.953400,166.502228 187.981812,164.698181 
	C188.453796,134.714035 188.686813,104.726135 188.973633,73.801620 
z"/>
<path fill="#1947A1" opacity="1.000000" stroke="none"
	d="
M41.344841,131.004913
	C41.343784,142.660156 41.343784,153.816025 41.343784,166.066757
	C36.319199,163.243469 32.012932,160.981277 27.916994,158.386993
	C27.115818,157.879532 26.810913,156.083694 26.815104,154.883972
	C26.901836,130.055923 27.008482,105.227394 27.343796,80.402100
	C27.366564,78.716469 28.813124,76.315941 30.290676,75.494102
	C52.823479,62.960873 75.449318,50.593609 98.149101,38.365170
	C99.518349,37.627552 102.043076,37.754997 103.438217,38.536564
	C125.791428,51.058907 148.076263,63.704800 170.262985,76.519394
	C171.717392,77.359444 173.088043,79.788811 173.090683,81.481064
	C173.128860,106.142014 172.984055,130.804077 172.658463,155.462936
	C172.635925,157.168961 171.236252,159.418335 169.788605,160.429443
	C166.580215,162.670349 162.933868,164.284195 158.803574,166.510910
	C158.803574,159.491760 158.783112,153.235657 158.808350,146.979721
	C158.846664,137.481781 159.076233,127.979942 158.836288,118.489578
	C158.789322,116.631981 157.447372,114.045006 155.904175,113.104088
	C138.571701,102.536102 121.054787,92.271141 103.670219,81.787476
	C101.388313,80.411385 99.804367,80.330093 97.437576,81.707893
	C79.895760,91.919647 62.203903,101.874268 44.699921,112.149422
	C43.137787,113.066437 41.907192,115.605530 41.681927,117.527184
	C41.180149,121.807610 41.412636,126.174110 41.344841,131.004913
z"/>
<path fill="#1847A0" opacity="1.000000" stroke="none"
	d="
M57.038254,127.355247 
	C56.648144,124.125610 57.635830,122.413040 60.252701,120.959999 
	C72.750778,114.020279 85.062881,106.745155 97.577751,99.836815 
	C99.037102,99.031242 101.745995,99.052567 103.190643,99.882629 
	C115.586670,107.005142 127.883286,114.308014 140.037979,121.834160 
	C141.594391,122.797890 143.036026,125.340660 143.057388,127.169144 
	C143.226517,141.651062 143.152054,156.139801 142.816391,170.618637 
	C142.774445,172.428635 141.201706,174.921860 139.608444,175.862976 
	C127.308350,183.128342 114.872604,190.169846 102.344704,197.035873 
	C100.881310,197.837906 98.194069,197.860641 96.763702,197.041153 
	C84.361214,189.935593 72.057213,182.650543 59.898693,175.136093 
	C58.351368,174.179794 56.959621,171.606583 56.937412,169.765060 
	C56.768784,155.782761 56.959362,141.796158 57.038254,127.355247 
z"/>
</svg>
